<svg width="900.9399999999999" height="787" xmlns="http://www.w3.org/2000/svg">
 <defs>
  <linearGradient id="33dd52eb-d837-4874-aadb-63a17bd6edfc" x1="0.499993" y1="1.000092" x2="0.499993" y2="0">
   <stop offset="0" stop-color="gray" stop-opacity="0.25"/>
   <stop offset="0.54" stop-color="gray" stop-opacity="0.12"/>
   <stop offset="1" stop-color="gray" stop-opacity="0.1"/>
  </linearGradient>
 </defs>
 <title>coding</title>
 <g>
  <title>background</title>
  <rect x="-1" y="-1" width="902.94" height="789" id="canvas_background" fill="none"/>
 </g>
 <g>
  <title>Layer 1</title>
  <rect x="408.973894" y="140.285342" width="7.3" height="41.39" fill="#DDDDDD" id="svg_62"/>
  <path d="m130.75,276s73.29,73.29 31.92,182s70.91,289.64 70.91,289.64s-1.2,-0.18 -3.43,-0.57c-150.52,-26.57 -225.31,-198.72 -141.57,-326.57c31.08,-47.59 56.62,-103.36 42.17,-144.5z" fill="#007f3f" id="svg_11"/>
  <path d="m130.75,276s41.37,89.84 0,163.12s-7.09,279 102.84,308.52" fill="none" stroke="#535461" stroke-miterlimit="10" stroke-width="2" id="svg_12"/>
  <path d="m0.21,572.42s83.63,-13.32 91.25,61.63s160.82,85.34 160.82,85.34s-1,0.68 -2.87,1.91c-126.49,83 -247.4,52.89 -229.17,-57.36c6.77,-40.99 6.21,-82.16 -20.03,-91.52z" fill="#007f3f" id="svg_13"/>
  <path d="m0.21,572.42s83.63,-13.32 91.25,61.63s160.82,85.34 160.82,85.34s-1,0.68 -2.87,1.91c-126.49,83 -247.4,52.89 -229.17,-57.36c6.77,-40.99 6.21,-82.16 -20.03,-91.52z" fill="#007f3f" opacity="0.2" id="svg_14"/>
  <path d="m0.21,572.42s64.91,14.25 59.58,73.27s96.4,129.81 192.49,73.7" fill="#007f3f" stroke="#535461" stroke-miterlimit="10" stroke-width="2" id="svg_15"/>
  <path d="m720.65,391.11a412.25,412.25 0 0 1 -6.18,-56.71l0,0a76,76 0 0 0 -53.46,-69.38c-5.46,-1.68 -11.47,-3.25 -18.11,-4.66c-58.2,-12.36 -75.88,-1.57 -77.89,-0.15a74.63,74.63 0 0 1 -4.43,-9.61c-0.1,-0.34 -0.19,-0.68 -0.29,-1a74.51,74.51 0 0 0 19.91,-44.89c9.71,-9.84 15.38,-21.72 15.38,-34.51c0,-11 -4.2,-21.32 -11.55,-30.25l0,-17.38a75.57,75.57 0 0 0 -75.57,-75.57l-6.13,0a75.57,75.57 0 0 0 -75.57,75.57l0,18.73c-6.67,8.61 -10.45,18.44 -10.45,28.88c0,12.52 5.44,24.16 14.78,33.88a74.52,74.52 0 0 0 20.74,46.34c0.41,2.84 0.83,5.89 1.24,9.11l-104.1,21.99s-40.14,1.65 -66,55c-21.87,45.19 -65.39,161.29 -78.28,195.85l0,0c-2.33,6.26 -3.65,9.85 -3.65,9.85s0.43,-0.43 1.24,-1.17l-1.24,3.37s0.63,-0.64 1.83,-1.69c-1.82,14.46 -2.08,39.29 16.86,42.38c15.88,2.59 56.8,3.66 87.71,4.09l0,0l2.14,0c20.49,0.27 36.08,0.27 36.08,0.27l0,-0.27l332.44,0l0,-3.41a22.91,22.91 0 0 0 -1.83,-9l0.46,-0.56a18.25,18.25 0 0 1 3.45,8a8,8 0 0 1 -0.16,0.84l0.2,-0.51a8.56,8.56 0 0 1 -0.2,2.71s42.65,-109.89 42.19,-175.51a111.17,111.17 0 0 0 -1.56,-20.63zm-265.85,-116.75a76.25,76.25 0 0 1 -1.06,-9.48s0,-0.06 0,-0.09c0.37,3.09 0.73,6.29 1.06,9.57zm-129.22,236.04l0,26.19l-16.4,3.51l16.4,-29.7z" fill="url(#33dd52eb-d837-4874-aadb-63a17bd6edfc)" id="svg_27"/>
  <path d="m503.71,57.20504l0,0a75.57,75.57 0 0 1 75.57,75.57l0,32.24a0,0 0 0 1 0,0l-151.14,0a0,0 0 0 1 0,0l0,-32.24a75.57,75.57 0 0 1 75.57,-75.57z" fill="#777777" id="svg_28"/>
  <ellipse cx="504.24" cy="175.388206" rx="86.14" ry="59.19" fill="#777777" id="svg_29"/>
  <path d="m449.02,233.29s18,94.07 0,119.44s55,35.41 55,35.41l75.56,-27.48l10.57,-67.65s-46,-25.9 -36.47,-78.22l-104.66,18.5z" fill="#d1a3a4" id="svg_30"/>
  <path d="m672.04,550.39s4.76,20.61 -21.14,24.31a146.45,146.45 0 0 1 -46.08,-0.55l-5.71,-51.77l60.25,0l12.68,28.01z" fill="#f7c4a7" id="svg_31"/>
  <path d="m214.7,524.01s-11.44,46.49 14.46,50.69s121,4.23 121,4.23l0,-55l-43.06,9.2l-40.42,-38.76l-51.98,29.64z" fill="#d1a3a4" id="svg_32"/>
  <path d="m454.58,263.68l-101.21,21.4s-38.58,1.59 -63.42,52.85s-78.75,197.66 -78.75,197.66s46,-46.51 99.89,3.17l35.94,-65l-7.93,103.06l278.48,0l0,-48.63s58.13,31.18 53.91,48.62c0,0 49.75,-128.18 39,-186.43a396.18,396.18 0 0 1 -5.94,-54.5l0,0a73,73 0 0 0 -51.38,-66.67c-5.24,-1.61 -11,-3.12 -17.4,-4.47c-59.72,-12.68 -75,0 -75,0s-11.57,37.64 -11.36,54.7c0.26,21.93 -31.18,36.47 -31.18,36.47s-46.51,-11.1 -48.62,-20.08s-18.75,-61.58 -15.03,-72.15z" opacity="0.1" id="svg_33"/>
  <path d="m454.58,261.57l-101.21,21.4s-38.58,1.59 -63.42,52.85s-78.76,197.68 -78.76,197.68s46,-46.51 99.89,3.17l35.94,-65l-7.93,103.03l278.49,0l0,-48.62s58.13,31.18 53.91,48.62c0,0 49.75,-128.18 39,-186.43a396.18,396.18 0 0 1 -5.94,-54.5l0,0a73,73 0 0 0 -51.38,-66.67c-5.24,-1.61 -11,-3.12 -17.4,-4.47c-59.72,-12.68 -75,0 -75,0s-11.57,37.64 -11.36,54.7c0.26,21.93 -31.18,36.47 -31.18,36.47s-46.51,-11.1 -48.62,-20.08s-18.75,-61.58 -15.03,-72.15z" fill="#7a4d4d" id="svg_34"/>
  <path d="m558,257.08a71.53,71.53 0 0 1 -2.76,-37.52l-104.66,18.49s1.51,7.91 3.22,19.76a71.86,71.86 0 0 0 104.18,-0.73l0.02,0z" opacity="0.1" id="svg_35"/>
  <path d="m575.85,203.17a71.88,71.88 0 0 1 -143.73,1.74c0,-0.58 0,-1.16 0,-1.74a71.89,71.89 0 0 1 40.29,-64.59q3.23,-1.58 6.64,-2.84a72.39,72.39 0 0 1 37,-3.44l0,0a71.82,71.82 0 0 1 59.61,66.1q0.19,2.37 0.19,4.77z" fill="#d1a3a4" id="svg_36"/>
  <path d="m423.91,191.32s74,-92 159.61,0l-7.4,-20.61s-40.17,-58.66 -68.7,-46s-56.55,21.67 -56.55,21.67l-26.96,44.94z" opacity="0.1" id="svg_42"/>
  <path d="m423.91,189.32504s74,-92 159.61,0l-7.4,-20.61s-40.17,-58.66 -68.7,-46s-56.55,21.67 -56.55,21.67l-26.96,44.94z" fill="#777777" id="svg_43"/>
  <path d="m363.13,387.88s-15.85,42.28 6.34,80.33s-19.55,53.91 -19.55,53.91" opacity="0.1" id="svg_44"/>
  <path d="m619.98,349.83s27.48,34.88 9.51,66.06s-16.91,106.23 -16.91,106.23" opacity="0.1" id="svg_45"/>
  <path d="m338.82,553.3l305.47,0a25.37,25.37 0 0 1 25.37,25.37l0,0a0,0 0 0 1 0,0l-356.2,0a0,0 0 0 1 0,0l0,0a25.37,25.37 0 0 1 25.36,-25.37z" fill="#3f3f3f" id="svg_46"/>
  <path d="m369.9,378.89l243.32,0a39,39 0 0 1 39,39l0,141.22a0,0 0 0 1 0,0l-321.32,0a0,0 0 0 1 0,0l0,-141.22a39,39 0 0 1 39,-39z" fill="#3f3f3f" id="svg_47"/>
  <circle cx="491.29" cy="476.93" r="19.03" fill="#fff" id="svg_48"/>
  <path d="m428.14,148.2s72.72,-72.68 151.15,-1.33" fill="#777777" stroke="#000" stroke-miterlimit="10" opacity="0.1" id="svg_49"/>
  <rect x="590.36" y="143.57" width="7.3" height="41.39" fill="#DDDDDD" id="svg_50"/>
  <path d="m581.62,170.35l0,0a25.16,25.16 0 0 1 25.16,25.16l0,1.62a25.16,25.16 0 0 1 -25.16,25.16l0,0a0,0 0 0 1 0,0l0,-51.94a0,0 0 0 1 0,0z" fill="#000000" id="svg_51"/>
  <rect x="575.75" y="167.92" width="11.36" height="56.81" rx="5.68" ry="5.68" fill="#444444" id="svg_52"/>
  <rect x="1533.20001" y="587.529994" width="7.3" height="41.39" transform="rotate(-180 1536.8499755859375,608.2249755859375) " fill="#6a5c99" id="svg_53"/>
  <path d="m1526.7,678.42001l0,0a25.16,25.16 0 0 1 25.16001,25.16l0,1.62a25.16,25.16 0 0 1 -25.16001,25.16l0,0a0,0 0 0 1 0,0l0,-51.94a0,0 0 0 1 0,0z" transform="rotate(180 1539.280029296875,704.3900146484375) " fill="#000000" id="svg_54"/>
  <rect x="1568.909983" y="675.99001" width="11.36" height="56.81" rx="5.68" ry="5.68" transform="rotate(-180 1574.5899658203125,704.39501953125) " fill="#6a5c99" id="svg_55"/>
  <path d="m589.5,99.33c-9.89,-20.56 -31.43,-45.42 -77.86,-47.41l0,-0.06l-0.56,0l0,0l-16.45,0.78l0,0.08c-46.12,2.12 -67.56,26.89 -77.42,47.38a106.59,106.59 0 0 0 -10.22,44.4l5.68,-0.14l5.68,-0.13a96.65,96.65 0 0 1 9.23,-39.52c12.52,-25.72 35.56,-39.39 68.47,-40.66l0,0l14.55,-0.81l0,0c32.93,1.26 55.98,14.95 68.49,40.66a96.65,96.65 0 0 1 9.25,39.54l5.68,0.13l5.68,0.14a106.59,106.59 0 0 0 -10.2,-44.38z" fill="#000000" id="svg_56"/>
  <rect x="74.28" y="579" width="774.71" height="208" fill="#d6d6e3" id="svg_57"/>
  <rect x="74.28" y="593" width="774.71" height="27" opacity="0.1" id="svg_58"/>
  <rect x="22.31" y="576" width="878.63" height="27" fill="#d6d6e3" id="svg_59"/>
  <path d="m398.34992,171.71496l0,0a25.16,25.16 0 0 1 25.16,25.16l0,1.62a25.16,25.16 0 0 1 -25.16,25.16l0,0a0,0 0 0 1 0,0l0,-51.94a0,0 0 0 1 0,0z" fill="#000000" id="svg_60" transform="rotate(-180 410.929931640625,197.68496704101562) "/>
  <rect x="421.371078" y="169.014886" width="11.36" height="56.81" rx="5.68" ry="5.68" fill="#444444" id="svg_61"/>
  <path fill="#444444" stroke="null" stroke-width="null" stroke-opacity="null" d="m611.15512,182.73682c-1.19868,-0.21677 -1.61202,-1.73111 -0.89737,-2.63837c0.94842,-1.40313 2.9772,-2.34902 4.56677,-1.46368c0.03167,-4.95724 0.0134,-9.91475 0.01824,-14.87212c3.9634,-0.78408 7.93577,-1.52438 11.90056,-2.30197c-0.00859,5.53776 -0.01717,11.07552 -0.02576,16.61327c-0.62116,1.67495 -2.62827,2.83643 -4.37595,2.31705c-1.04048,-0.31146 -1.28992,-1.65449 -0.71054,-2.47738c0.79341,-1.2275 2.27014,-2.07029 3.75474,-1.84036c0.42366,-0.04286 1.04753,0.64304 0.86846,-0.13289c-0.0147,-4.38012 0.03658,-8.76142 -0.03784,-13.14062c-0.64682,-0.24014 -1.79715,0.31237 -2.62533,0.35707c-2.7695,0.539 -5.54492,1.04944 -8.30805,1.61996c0.08337,4.85333 0.04449,9.70963 0.03208,14.56399c0.1467,1.10811 -0.46406,2.15194 -1.39272,2.72958c-0.80137,0.58292 -1.79145,0.79305 -2.76729,0.66647l0,0z" id="svg_63"/>
  <path fill="#444444" stroke="null" stroke-width="null" stroke-opacity="null" d="m617.11059,214.68155c-0.89521,-0.12 -1.15213,-1.27307 -0.55881,-1.87528c0.64958,-0.85515 1.89276,-1.39491 2.90802,-0.86828c0.04137,-3.2588 0.01797,-6.5183 0.02415,-9.77745c5.12583,-1.02561 10.25865,-2.01735 15.38671,-3.03218c-0.01477,3.60297 0.03605,7.20716 -0.0357,10.80919c-0.12312,0.92919 -1.07147,1.5463 -1.92524,1.73928c-0.74815,0.22935 -1.80162,-0.26756 -1.62442,-1.16356c0.21908,-0.96908 1.21874,-1.66734 2.1797,-1.75225c0.53747,-0.13443 1.28926,0.57883 1.04372,-0.3698c0.00595,-2.45962 -0.00447,-4.91921 -0.00824,-7.37883c-2.38742,0.46907 -4.77436,0.9406 -7.16223,1.40737c-0.01455,3.01274 0.03464,6.02673 -0.03595,9.0385c-0.14415,0.96904 -1.16312,1.60971 -2.07557,1.73316c-0.90337,0.24445 -1.85165,-0.6961 -1.34128,-1.5716c0.56374,-1.05035 2.00117,-1.76558 3.11887,-1.15555c0.00849,-2.61918 0.03592,-5.23965 -0.01298,-7.85832c-0.60449,-0.13137 -1.53381,0.2797 -2.24922,0.33883c-1.64027,0.32241 -3.28011,0.64679 -4.92018,0.97023c-0.0224,3.07905 0.00795,6.15961 -0.06811,9.2374c-0.38619,1.01526 -1.57631,1.67724 -2.64324,1.52914l0,0l-0.00001,0l0.00001,0zm6.3488,-12.19457c1.1803,-0.23287 2.36057,-0.46572 3.54087,-0.69858c0.19881,-0.83149 -0.89668,-0.11258 -1.33549,-0.15892c-1.94854,0.39203 -3.89673,0.78581 -5.84611,1.17363c-0.11292,0.85145 1.17515,-0.02308 1.65487,0.07407c0.66208,-0.1295 1.324,-0.25964 1.98585,-0.3902l0.00001,0zm7.46802,-1.48649c1.18446,-0.23814 2.37493,-0.45496 3.55559,-0.70726c0.17688,-0.82773 -1.13813,0.02671 -1.59857,-0.06845c-1.83659,0.35893 -3.6803,0.69094 -5.51289,1.06471c-0.1961,0.87578 1.14193,0.0029 1.62117,0.09082c0.64486,-0.12679 1.28978,-0.25337 1.9347,-0.37982l0,0z" id="svg_64"/>
  <path fill="#ffffff" stroke-width="null" stroke-opacity="null" d="m718.20066,465.08426c-29.65174,0 -53.68879,18.0289 -53.68879,40.26516c0,7.59835 2.84169,14.69937 7.73072,20.76447l-7.73072,16.94944l21.52526,-5.52123c8.96978,5.04422 20.08349,8.07536 32.16352,8.07536c29.65172,0 53.68883,-18.02897 53.68883,-40.26804s-24.03711,-40.26516 -53.68883,-40.26516l0.00001,0zm-8.80526,55.72805l-8.96617,8.95881l-24.65806,-24.66172l24.65438,-24.6675l8.96985,8.9793l-15.68827,15.6882l15.68827,15.70291zm27.11721,8.94714l-8.96248,-8.97053l15.6926,-15.68527l-15.6926,-15.69122l8.96248,-8.97053l24.6581,24.64415l-24.6581,24.6734z" id="svg_66" stroke="null"/>
 </g>
</svg>